<?xml version="1.0" standalone="yes"?>
<svg xmlns="http://www.w3.org/2000/svg" width="100%" height="100%" viewBox="0 0 205 240">
<!-- pattes -->
<path style="fill:#88c90d; stroke:none;" d="M126 64C125.284 54.8044 116.966 59.5057 111 60.9799C109.144 61.4387 106.242 62.2384 104.828 60.3819C103.548 58.7019 104.862 56.4693 105.823 55.0031C108.487 50.9399 113.631 48.8316 115.968 44.7006C117.919 41.2513 115.22 36.6775 111.386 39.6227C104.976 44.5466 104.531 53.9675 96 57C94.5103 50.483 94.4613 45.617 94.811 39.0046C94.9074 37.1808 94.8872 34.4429 92.7407 33.7516C89.1505 32.5953 88.9892 37.8746 89.1782 40.0008C89.6524 45.335 95.3768 58.0276 86.956 60.044C81.1832 61.4263 78.2971 52.278 73.304 53.7516C70.7839 54.4953 71.1864 57.7635 72.608 59.2986C74.899 61.7724 79.1655 62.5022 81.9606 64.3881C85.4654 66.7528 87.9166 71.5619 92.0903 72.6821C100.58 74.9608 103.552 68.431 110.004 65.179C114.533 62.8963 121.065 64 126 64z"/>

<path style="fill:#88c90d; stroke:none;" d="M51 73C44.0716 69.0861 42.5402 61.6893 37.3627 56.3187C35.6231 54.5143 30.6355 53.1218 30.6358 57.1443C30.6361 60.6195 34.7625 63.0629 36.9606 65.1698C40.5166 68.578 43.0627 72.1555 44 77C38.1027 76.9512 32.7546 74.4413 27.0193 74.2431C25.0443 74.1748 21.887 75.0565 22.7515 77.7407C24.093 81.9055 32.827 78.7719 36 79.9082C40.362 81.4702 42.2936 85.8521 46.1698 87.9715C54.636 92.6004 60.1271 83.2008 66.0147 79.4684C68.7885 77.7099 75.2867 76.3412 76.2485 72.7948C77.1493 69.4729 73.5817 68.2118 71.1651 69.6582C67.1727 72.0477 58.7028 81.0075 56.3326 70.9807C54.84 64.6669 60.0464 58.2673 58.6427 52.0594C57.7511 48.1158 53.2034 47.9876 52.4082 52.0594C51.7692 55.331 53.6271 58.732 53.7361 62C53.8642 65.8387 52.3143 69.4738 51 73z"/>

<!-- insecte -->
<path style="fill:#4e2828; stroke:none" d="M162 83C114.952 108.854 111.472 99.4262 106 95 L 62 111C61.014 112.965 60.136 114.98 58.5957 116.59C57.1834 118.066 54.4934 119.091 54.0208 121.27C53.2797 124.687 57.4764 127.583 59.1204 130.086C60.6989 132.489 61.708 135.019 63.9035 136.986C72.4559 144.649 85.4892 143.043 96 144C93.9293 146.167 92.2446 149.403 89.6721 150.976C86.6319 152.835 82.9881 151.873 80 154C82.3682 155.527 84.1857 156.86 86 159C87.773 158.434 89.1578 158.072 91 158C91.9857 156.521 92 156.797 92 155L94 157C96.6093 155.487 99.0644 153.371 102 152.472C104.614 151.672 107.005 152.217 109.111 150.111C111.816 147.406 111.955 142.847 108 142C116.947 138.964 125.323 135.847 134 132C132.226 137.33 130.26 142.503 129 148C131.068 150.687 131.373 153.682 132 157C133.797 157 133.521 156.986 135 156C134.919 145.9 143.34 135.934 142 126C147.335 123.115 150.762 117.947 156 115C158.917 123.1 165.833 129.624 173.961 132.15C178.843 133.668 183.504 133.84 186 129C171.533 132.62 167.453 120.683 158 113C163.135 110.314 165.66 105.584 170 102C170.372 93.2952 173.283 85.9364 162 83z"/>

<path style="fill:#4e2828; stroke:none;" d="M33 147C33.375 150.284 33.8073 151.881 37 153C35.9711 150.388 35.0704 148.881 33 147z"/>

<path style="fill:#4e2828; stroke:none;" d="M39 153C42.795 156.706 46.8902 159.589 50 164C54.104 163.708 56.8812 163.817 59 160C56.0445 159.642 52.493 159.682 49.7184 158.556C45.9026 157.009 43.0228 154.283 39 153z"/>

<path style="fill:#4e2828; stroke:none;" d="M109 168C117.294 169.424 126.716 161.576 131 155C124.928 155.072 123.768 157.892 118.907 160.726C114.805 163.118 110.88 163.194 109 168M65 165C69.9356 165.324 74.1679 162.748 79 162C73.8743 158.499 68.629 160.422 65 165M107 166L108 167L107 166z"/>

<!-- flèche -->
<path fill="red" stroke="none" d="M132 65 L 171 50 L 177 76 L 165 73 L 148 110 L 120 112 L 106 95 L 96 115 L 66 118 L 63 110 L 58 119 L 30 121 L 46 89 L 74 87 L 78 96 L 90 74 L 119 72 L 131 92 L 144 68 z" />

<text x="16" y="192" font-family="Arial, sans-serif" font-size="52" font-weight="bold" fill="black">DGSim</text> 

<g transform="translate(0,204) scale(0.1,-0.1)"
fill="#000000" stroke="none">
    <path d="M792 2000 c-374 -87 -670 -385 -752 -758 -38 -171 -21 -453 34 -587
    13 -31 16 -87 16 -341 l0 -304 940 0 940 0 0 303 c0 272 2 307 19 352 40 107
    53 208 48 379 -5 184 -22 264 -85 400 -54 114 -112 197 -201 287 -126 125
    -281 215 -448 261 -114 31 -393 35 -511 8z m491 -28 c167 -46 323 -137 448
    -261 124 -125 216 -282 261 -448 43 -159 34 -420 -19 -567 -12 -33 -14 -101
    -13 -359 l1 -317 -931 0 -931 0 1 318 c1 221 -2 326 -10 347 -52 133 -65 378
    -30 539 82 372 378 669 752 756 116 27 357 23 471 -8z"/>
    <path d="M831 1960 c-338 -71 -615 -322 -727 -660 -27 -82 -28 -92 -29 -290 0
    -205 0 -205 33 -301 l32 -96 0 -265 c0 -192 3 -267 12 -276 9 -9 218 -12 879
    -12 727 0 868 2 878 14 8 10 11 92 11 278 -1 157 3 274 9 290 51 135 56 167
    56 373 -1 192 -2 203 -29 285 -102 307 -331 537 -636 636 -78 25 -100 27 -265
    30 -99 2 -200 -1 -224 -6z m459 -75 c306 -99 513 -306 616 -615 27 -80 28 -95
    28 -260 0 -165 -1 -180 -28 -260 -16 -47 -37 -102 -47 -123 -19 -37 -19 -37 1
    -37 20 0 20 -6 20 -245 l0 -245 -850 0 -850 0 0 245 c0 239 0 245 20 245 20 0
    20 0 1 37 -10 21 -31 76 -47 123 -27 80 -28 95 -28 260 0 165 1 180 28 260
    100 301 309 514 597 609 108 35 147 40 304 37 131 -3 161 -7 235 -31z"/>
</g>

</svg>
