<svg version="1.1" baseProfile="full" xmlns="http://www.w3.org/2000/svg" width="100%" height="100%" viewBox="900 440 640 640">
      <path d="M 1344.2857,565.93361 L 1535.7142,459.50504 L 1319.2857,1047.3622 L 1344.2857,565.93361 z " style="fill:#84573a;fill-opacity:1;fill-rule:evenodd;stroke:#84563c;stroke-width:1px;stroke-linecap:butt;stroke-linejoin:miter;stroke-opacity:1"/>
      <path d="M 913.92858,537.00503 L 1340,568.79075 L 1316.7857,1047.7193 L 913.92858,537.00503 z " style="fill:#398153;fill-opacity:1;fill-rule:evenodd;stroke:#398153;stroke-width:1px;stroke-linecap:butt;stroke-linejoin:miter;stroke-opacity:1"/>
      <path id="path2259" d="M 919.28572,534.79075 L 1530,457.6479 L 1341.4286,565.50503 L 919.28572,534.79075 z " style="fill:#748e67;fill-opacity:1;fill-rule:evenodd;stroke:#748e67;stroke-width:1px;stroke-linecap:butt;stroke-linejoin:miter;stroke-opacity:1"/>
      <path d="M 912.02009,533.14343 L 1535,454.50504 L 1533.5714,460.57647 L 914.28572,537.71932 L 912.02009,533.14343 z " style="fill:#2c4917;fill-opacity:1;fill-rule:evenodd;stroke:#2c4817;stroke-width:1px;stroke-linecap:butt;stroke-linejoin:miter;stroke-opacity:1"/>
      <path d="M 1539.1417,459.1406 L 1319.8616,1047.8477 C 1318.4716,1051.5794 1311.4725,1050.2796 1313.5469,1044.6906 L 1532.1166,455.81244 L 1539.1417,459.1406 z " style="fill:#3f3011;fill-opacity:1;fill-rule:evenodd;stroke:#3f3011;stroke-width:1px;stroke-linecap:butt;stroke-linejoin:miter;stroke-opacity:1"/>
      <path d="M 1350.0256,567.51959 L 1347.2476,569.79244 L 1319.4684,1045.5743 L 1313.5861,1045.2631 C 1313.5861,1045.2631 1331.4186,689.56456 1337.6512,568.78228 C 1337.8072,565.75873 1336.8894,561.02083 1342.6586,561.14618 C 1350.3658,561.31363 1348.2258,563.7594 1350.0256,567.51959 z " style="fill:#1c441f;fill-opacity:1;fill-rule:evenodd;stroke:#1c441f;stroke-width:1px;stroke-linecap:butt;stroke-linejoin:miter;stroke-opacity:1"/>
      <path d="M 907.21683,538.13512 L 1313.336,1049.2815 C 1315.9054,1052.5153 1322.483,1049.5805 1318.6393,1044.7358 L 913.31564,533.8564 L 907.21683,538.13512 z " style="fill:#133c10;fill-opacity:1;fill-rule:evenodd;stroke:#133c10;stroke-width:1px;stroke-linecap:butt;stroke-linejoin:miter;stroke-opacity:1"/>
      <path d="M 1336.6422,568.88818 C 1336.0764,564.47229 1337.2416,562.31467 1338.8002,561.43304 L 913.82319,533.26906 C 905.80566,533.00186 903.34013,539.06314 913.22659,540.25007 C 922.48283,541.36132 1336.6422,568.88818 1336.6422,568.88818 z " style="fill:#256e51;fill-opacity:1;fill-rule:evenodd;stroke:#256e51;stroke-width:1.3910439px;stroke-linecap:butt;stroke-linejoin:miter;stroke-opacity:1"/>
      <path d="M 1343.5714,560.57647 C 1348.1861,561.54575 1348.2944,565.45103 1348.2143,569.23718 L 1537.8315,460.8892 C 1541.1474,458.6786 1538.8391,452.54086 1534.2857,454.50504 C 1530.0226,456.34401 1343.5714,560.57647 1343.5714,560.57647 z " style="fill:#432a14;fill-opacity:1;fill-rule:evenodd;stroke:#432a14;stroke-width:1px;stroke-linecap:butt;stroke-linejoin:miter;stroke-opacity:1"/>
</svg>