<svg version="1.1" baseProfile="full" width="100%" height="100%" xmlns="http://www.w3.org/2000/svg" viewBox="0 0 295 235">
    <g stroke="#000000" stroke-linejoin="round" stroke-dashoffset="0.0000" stroke-dasharray="none" stroke-width="1.0000" stroke-linecap="square">

		<g transform="matrix(1.0772, 0.0000, 0.0000, 1.0772, 0.0000, 0.0000)">
			<clipPath id="clip2">
			  <path d="M 0.0000 0.0000 L 0.0000 320.00 L 274.00 320.00 L 274.00 0.0000 z"/>
			</clipPath>
			<g clip-path="url(#clip2)">
			<g fill-opacity=".10196" fill-rule="nonzero" fill="#000000">
			  <path d="M 157.00 10.000 L 195.82 209.55 L 263.07 123.72 z"/>
			</g> <!-- drawing style -->
			</g> <!-- clip2 -->
		</g> <!-- transform -->

		<g transform="matrix(1.0772, 0.0000, 0.0000, 1.0772, 0.0000, 0.0000)">
			<clipPath id="clip3">
			  <path d="M 0.0000 0.0000 L 0.0000 320.00 L 274.00 320.00 L 274.00 0.0000 z"/>
			</clipPath>
			<g clip-path="url(#clip3)">
			<g fill-opacity=".25098" fill-rule="nonzero" fill="#000000">
			  <path d="M 157.00 10.000 L 12.111 146.72 L 195.82 209.55 z"/>
			</g> <!-- drawing style -->
			</g> <!-- clip3 -->
		</g> <!-- transform -->

		<g transform="matrix(1.0772, 0.0000, 0.0000, 1.0772, 0.0000, 0.0000)">
			<clipPath id="clip1">
			  <path d="M 0.0000 0.0000 L 0.0000 320.00 L 274.00 320.00 L 274.00 0.0000 z"/>
			</clipPath>
			<g clip-path="url(#clip1)">
			<g stroke-dasharray="1.0000,3.0000" stroke-linecap="butt" fill="none" stroke-opacity="1.0000">
			  <path d="M 12.111 146.72 L 263.07 123.72"/>
			</g> <!-- drawing style -->
			</g> <!-- clip1: ligne pointillée -->
		</g> <!-- transform -->
	</g> <!-- default stroke -->
</svg>